Coordinates
version=1
nRows=8
nColumns=40
inDegrees=yes

Units are S.I. units (second, meters, Newtons, ...)
If the header above contains a line with 'inDegrees', this indicates whether rotational values are in degrees (yes) or radians (no).

endheader
time	pelvis_tilt	pelvis_list	pelvis_rotation	pelvis_tx	pelvis_ty	pelvis_tz	hip_flexion_r	hip_adduction_r	hip_rotation_r	knee_angle_r	knee_angle_r_beta	ankle_angle_r	subtalar_angle_r	mtp_angle_r	hip_flexion_l	hip_adduction_l	hip_rotation_l	knee_angle_l	knee_angle_l_beta	ankle_angle_l	subtalar_angle_l	mtp_angle_l	lumbar_extension	lumbar_bending	lumbar_rotation	arm_flex_r	arm_add_r	arm_rot_r	elbow_flex_r	pro_sup_r	wrist_flex_r	wrist_dev_r	arm_flex_l	arm_add_l	arm_rot_l	elbow_flex_l	pro_sup_l	wrist_flex_l	wrist_dev_l
      0.49000000	     -3.96819204	     -3.23047558	     -4.17273111	     -0.52406856	      0.84340778	      0.24692612	    -11.94475025	      4.83939580	     -7.84731585	     10.85229666	      0.18940831	      7.96374096	      0.00000000	      0.00000000	     31.31787176	     -7.16132552	    -11.52158570	      5.42729583	      0.09472418	     -1.07201716	      0.00000000	      0.00000000	     -4.72556938	      2.36167074	     12.49039409	      4.38357921	    -12.54180591	     -3.99325276	     60.55322786	     89.13030640	    -11.81108617	      5.03500873	    -11.65253556	     -8.14050152	      9.56961799	     21.47567064	     88.94753651	    -23.00495383	      6.69777725
      0.50000000	     -3.63143163	     -2.87160940	     -4.65688656	     -0.50940546	      0.84213865	      0.24652183	    -12.97195533	      4.04163773	     -7.36901253	     11.56312957	      0.20181468	      7.67763122	      0.00000000	      0.00000000	     31.06678363	     -6.93776921	    -12.00737091	      5.81774082	      0.10153873	     -1.23939104	      0.00000000	      0.00000000	     -5.15270632	      1.89033068	     13.12121337	      4.33949489	    -12.39593936	     -4.55963629	     61.33516556	     89.13076967	    -11.69444403	      4.73964746	    -11.46082787	     -8.12761403	      9.62797341	     21.13382537	     88.95379748	    -23.16860932	      6.60757471
      0.51000000	     -3.59560489	     -2.62296267	     -4.79055692	     -0.49444523	      0.84055436	      0.24565864	    -13.65239767	      3.44694594	     -7.09360667	     12.30681599	      0.21479446	      6.95178971	      0.00000000	      0.00000000	     31.24738405	     -6.69999184	    -11.85213252	      6.78796068	      0.11847226	     -1.45044512	      0.00000000	      0.00000000	     -5.13132632	      1.60118380	     13.12055505	      4.45625522	    -12.18961751	     -4.61262997	     61.67014281	     89.12772259	    -11.67914100	      4.65080452	    -11.48509061	     -8.13697806	      9.61767486	     20.91345385	     88.93453757	    -23.18740041	      6.63639444
      0.52000000	     -3.46922896	     -2.26118558	     -4.97211345	     -0.47920063	      0.83938982	      0.24477926	    -14.30668924	      2.68251668	     -6.97070469	     13.26432304	      0.23150611	      5.96533422	      0.00000000	      0.00000000	     31.35317388	     -6.42123962	    -11.93892935	      8.30608435	      0.14496852	     -1.65976501	      0.00000000	      0.00000000	     -5.18244852	      1.17033719	     13.18848282	      4.44779661	    -11.91559764	     -4.74932634	     61.94450167	     89.12061944	    -11.67672400	      4.53028386	    -11.45375419	     -8.14249179	      9.60061528	     20.77977370	     88.92493858	    -23.20617243	      6.64559618
      0.53000000	     -3.24495756	     -1.73109055	     -5.31312663	     -0.46331175	      0.83854662	      0.24403449	    -14.94648662	      1.64034075	     -7.10732461	     14.44452776	      0.25210457	      4.85295099	      0.00000000	      0.00000000	     31.30541407	     -6.11211080	    -12.77792647	     10.26343695	      0.17913077	     -1.59174843	      0.00000000	      0.00000000	     -5.27088621	      0.55665317	     13.55514777	      4.08894675	    -11.55102666	     -5.24211975	     62.36796275	     89.12006376	    -11.67616891	      4.15524665	    -11.36549526	     -8.18677562	      9.63845398	     20.77112974	     88.92914959	    -23.26783438	      6.64063874
      0.54000000	     -3.07135163	     -1.25056297	     -5.50619615	     -0.44735918	      0.83791238	      0.24305419	    -15.42779917	      0.69208670	     -7.12669314	     15.75862543	      0.27503990	      3.30793331	      0.00000000	      0.00000000	     31.25783356	     -5.75428272	    -12.87440704	     12.27042430	      0.21415930	     -2.07338159	      0.00000000	      0.00000000	     -5.25906392	      0.02896446	     13.61422637	      3.85224349	    -11.16545085	     -5.45642409	     62.53406018	     89.11410277	    -11.68551182	      3.98003570	    -11.31313687	     -8.22396848	      9.67263189	     20.79671968	     88.92653620	    -23.28199910	      6.64732438
      0.55000000	     -2.92902631	     -0.68493294	     -5.69118336	     -0.43100003	      0.83746475	      0.24202415	    -15.72209325	     -0.38804285	     -7.38995299	     17.32412029	      0.30236294	      1.49521714	      0.00000000	      0.00000000	     31.21706631	     -5.32588375	    -13.01841484	     14.45943521	      0.25236475	     -2.52993165	      0.00000000	      0.00000000	     -5.18507236	     -0.61420646	     13.74757783	      3.37209581	    -10.70953237	     -5.75480936	     62.66934924	     89.11321114	    -11.69506351	      3.70218012	    -11.24825176	     -8.26981377	      9.68647019	     20.97628623	     88.92867692	    -23.30115623	      6.66826089
      0.56000000	     -2.75656048	     -0.15072282	     -5.80945448	     -0.41457370	      0.83727164	      0.24078826	    -15.87705759	     -1.44535186	     -7.61863522	     19.14325314	      0.33411280	     -0.63130212	      0.00000000	      0.00000000	     31.09041120	     -4.85033378	    -12.84370648	     16.61692638	      0.29002008	     -3.14072821	      0.00000000	      0.00000000	     -5.11847783	     -1.18696280	     13.69408256	      2.94859602	    -10.24723992	     -5.92843293	     62.69019157	     89.11084254	    -11.70467569	      3.53240751	    -11.19127109	     -8.29801118	      9.70391852	     21.19830791	     88.93238204	    -23.29559418	      6.67968439
